<svg width="218" height="129" viewBox="0 0 218 129" fill="none" xmlns="http://www.w3.org/2000/svg">
<g clip-path="url(#clip0)">
<path d="M24.2237 39.6133L29.293 21.8706H29.4885L34.5505 39.6133H39.0694L46.2026 14.3318H41.2782L36.7231 32.9217H36.5058L31.6249 14.3318H27.1494L22.2829 32.9073H22.0512L17.4961 14.3318H12.5717L19.7048 39.6133H24.2237Z" fill="#C5003E"/>
<path d="M53.6472 20.6538H49.179V39.6131H53.6472V20.6538Z" fill="#C5003E"/>
<path d="M53.2491 13.8248C53.0074 13.5901 52.7218 13.4054 52.4087 13.2811C52.0955 13.1568 51.761 13.0955 51.4241 13.1006C50.7448 13.0958 50.0903 13.3555 49.5992 13.8248C49.3589 14.0408 49.1668 14.3049 49.0353 14.6C48.9038 14.895 48.8358 15.2145 48.8358 15.5375C48.8358 15.8606 48.9038 16.18 49.0353 16.4751C49.1668 16.7702 49.3589 17.0343 49.5992 17.2502C50.0956 17.6986 50.7407 17.9468 51.4096 17.9468C52.0785 17.9468 52.7237 17.6986 53.2201 17.2502C53.4553 17.0332 53.6416 16.7685 53.7664 16.4738C53.8913 16.1791 53.9519 15.8611 53.9443 15.5412C53.9553 15.2223 53.8991 14.9047 53.7793 14.609C53.6595 14.3133 53.4789 14.0461 53.2491 13.8248V13.8248Z" fill="#C5003E"/>
<path d="M72.5918 37.0857C73.2799 36.1808 73.6469 35.0723 73.6346 33.9355C73.6559 33.3242 73.549 32.7151 73.3208 32.1476C73.0925 31.5801 72.748 31.0667 72.3093 30.6404C71.1655 29.6717 69.7778 29.0355 68.2974 28.801L65.0675 28.0768C64.3284 27.9569 63.6241 27.6777 63.0036 27.2584C62.8045 27.0966 62.6459 26.8906 62.5403 26.6568C62.4347 26.423 62.3851 26.1678 62.3953 25.9114C62.3953 25.5897 62.4821 25.2739 62.6465 24.9973C62.8109 24.7208 63.0468 24.4937 63.3295 24.34C64.0355 23.9196 64.8474 23.7109 65.6686 23.7389C66.2701 23.7204 66.8683 23.8341 67.4211 24.072C67.8644 24.2694 68.2542 24.5699 68.5581 24.9483C68.8352 25.2896 69.0397 25.6839 69.1591 26.107L73.2363 25.6652C72.9765 24.1227 72.1208 22.7442 70.8537 21.827C69.306 20.7898 67.464 20.2817 65.6034 20.3786C64.2339 20.3547 62.8731 20.6008 61.5987 21.1028C60.5309 21.5067 59.5959 22.1985 58.8975 23.1016C58.2417 23.9829 57.9024 25.0596 57.9343 26.1577C57.9081 26.7866 58.0094 27.4143 58.2322 28.003C58.455 28.5916 58.7946 29.1292 59.2306 29.5831C60.3545 30.6096 61.7589 31.2778 63.2643 31.5022L66.5014 32.1829C67.1994 32.2945 67.8602 32.5727 68.4277 32.994C68.6277 33.1559 68.7879 33.3615 68.8959 33.595C69.0039 33.8286 69.0568 34.0838 69.0505 34.341C69.042 34.672 68.9473 34.9949 68.7759 35.2781C68.6044 35.5613 68.3621 35.795 68.0729 35.956C67.3043 36.4291 66.4107 36.6588 65.5093 36.615C64.6265 36.6552 63.7524 36.4253 63.0036 35.956C62.3545 35.5028 61.9076 34.8143 61.758 34.0369L57.4129 34.4569C57.5222 35.2774 57.8047 36.0652 58.2417 36.7681C58.6787 37.4711 59.2602 38.073 59.9476 38.5341C61.6241 39.5781 63.5803 40.0836 65.5527 39.9825C66.9877 40.0105 68.4137 39.7494 69.7457 39.2148C70.8683 38.7734 71.8513 38.038 72.5918 37.0857V37.0857Z" fill="#C5003E"/>
<path d="M87.1696 35.956C86.4016 36.4304 85.5076 36.6602 84.606 36.615C83.7232 36.6553 82.8491 36.4254 82.1004 35.956C81.4502 35.5012 80.9992 34.8143 80.8403 34.0369L76.4952 34.457C76.6009 35.2776 76.8811 36.0661 77.3171 36.7694C77.753 37.4727 78.3346 38.0744 79.0226 38.5341C80.6992 39.5782 82.6553 40.0836 84.6277 39.9825C86.0628 40.0106 87.4887 39.7495 88.8208 39.2149C89.9628 38.7834 90.9647 38.047 91.7175 37.0858C92.3824 36.1725 92.7262 35.0648 92.6951 33.9355C92.7165 33.3242 92.6096 32.7152 92.3813 32.1477C92.1531 31.5802 91.8085 31.0668 91.3699 30.6405C90.2279 29.6733 88.8429 29.0371 87.3651 28.801L84.1281 28.0768C83.3857 27.9512 82.6807 27.6617 82.0641 27.2295C81.8629 27.0692 81.7023 26.8637 81.5953 26.6296C81.4883 26.3956 81.4381 26.1396 81.4486 25.8825C81.4486 25.5608 81.5354 25.245 81.6998 24.9684C81.8642 24.6919 82.1001 24.4648 82.3828 24.311C83.0888 23.8907 83.9007 23.682 84.7219 23.71C85.3234 23.6915 85.9216 23.8052 86.4744 24.0431C86.9243 24.2497 87.3189 24.5599 87.6259 24.9483C87.8981 25.2917 88.0999 25.6855 88.2197 26.107L92.2968 25.6653C92.0374 24.1245 91.1847 22.7467 89.9215 21.8271C88.3698 20.7926 86.5265 20.2848 84.664 20.3787C83.2944 20.3547 81.9336 20.6008 80.6592 21.1029C79.5925 21.5087 78.658 22.2002 77.958 23.1016C77.3079 23.9799 76.9713 25.051 77.0021 26.1432C76.9759 26.7721 77.0772 27.3998 77.3 27.9885C77.5227 28.5772 77.8624 29.1147 78.2984 29.5687C79.4223 30.5952 80.8266 31.2633 82.3321 31.4878L85.5692 32.1685C86.2689 32.2817 86.9317 32.5597 87.5027 32.9796C87.7015 33.1425 87.8608 33.3483 87.9687 33.5816C88.0766 33.8149 88.1302 34.0696 88.1255 34.3266C88.121 34.6577 88.0305 34.982 87.8629 35.2676C87.6953 35.5533 87.4564 35.7905 87.1696 35.956V35.956Z" fill="#C5003E"/>
<path d="M113.233 29.9816C113.256 28.5155 113.01 27.0576 112.509 25.6799C112.105 24.5606 111.46 23.5442 110.618 22.7034C109.844 21.9507 108.918 21.3707 107.903 21.0016C106.837 20.6268 105.715 20.4382 104.586 20.444C102.927 20.404 101.29 20.8332 99.8644 21.6823C98.5132 22.5137 97.4258 23.7116 96.7287 25.1367C95.9598 26.7398 95.5778 28.5009 95.6135 30.2785C95.5688 32.0662 95.9512 33.8388 96.7287 35.4492C97.4273 36.8661 98.5314 38.0433 99.9006 38.8312C101.409 39.6535 103.108 40.0631 104.825 40.0188C106.164 40.042 107.495 39.8136 108.75 39.3453C109.814 38.9287 110.765 38.2661 111.524 37.4117C112.263 36.5905 112.779 35.593 113.023 34.515L108.873 34.037C108.694 34.55 108.393 35.0121 107.997 35.384C107.604 35.7524 107.137 36.0337 106.628 36.2096C106.059 36.4021 105.462 36.4952 104.861 36.4848C103.974 36.5077 103.096 36.2927 102.319 35.862C101.602 35.4429 101.025 34.8204 100.661 34.0732C100.252 33.2272 100.046 32.2972 100.06 31.3575H113.262L113.233 29.9816ZM100.045 28.3449C100.079 27.6214 100.272 26.9142 100.61 26.2737C100.987 25.5691 101.541 24.975 102.218 24.5501C102.94 24.0995 103.778 23.8681 104.63 23.8839C105.419 23.8688 106.198 24.0691 106.882 24.4632C107.523 24.852 108.046 25.4077 108.395 26.0709C108.764 26.7794 108.953 27.5678 108.946 28.3666L100.045 28.3449Z" fill="#C5003E"/>
<path d="M117.013 20.6539V39.6132H121.481V28.5041C121.456 27.6969 121.63 26.896 121.988 26.1722C122.321 25.5601 122.824 25.0571 123.437 24.7238C124.075 24.3745 124.794 24.1974 125.522 24.2096C126.014 24.1873 126.505 24.2693 126.963 24.4502C127.421 24.6312 127.836 24.9071 128.18 25.2597C128.873 26.0883 129.223 27.1506 129.158 28.2289V39.6132H133.626V27.5192C133.673 26.185 133.4 24.8588 132.829 23.652C132.331 22.6363 131.542 21.7918 130.562 21.226C129.516 20.6463 128.333 20.3563 127.137 20.3859C125.884 20.3411 124.644 20.666 123.574 21.3201C122.631 21.9286 121.9 22.814 121.481 23.8548H121.257V20.6539H117.013Z" fill="#C5003E"/>
<path d="M140.954 34.4787C140.599 34.475 140.247 34.5429 139.918 34.6786C139.59 34.8142 139.292 35.0147 139.043 35.268C138.79 35.5197 138.589 35.8187 138.453 36.1481C138.316 36.4774 138.245 36.8305 138.245 37.1871C138.245 37.5437 138.316 37.8969 138.453 38.2262C138.589 38.5555 138.79 38.8546 139.043 39.1062C139.293 39.3614 139.594 39.5629 139.925 39.6985C140.256 39.8342 140.611 39.9013 140.969 39.8956C141.44 39.9019 141.904 39.7765 142.309 39.5335C142.715 39.2948 143.056 38.9589 143.301 38.5559C143.55 38.1398 143.682 37.6646 143.685 37.1799C143.67 36.467 143.378 35.788 142.871 35.2865C142.364 34.785 141.682 34.5005 140.969 34.4931L140.954 34.4787Z" fill="#C5003E"/>
<path d="M31.1688 51.7L24.6005 71.6007H24.347L17.7642 51.7H12.7384L21.6386 76.9814H27.2944L36.2091 51.7H31.1688Z" fill="#C5003E"/>
<path d="M53.4228 67.3497C53.4459 65.8837 53.2005 64.4257 52.6986 63.048C52.2966 61.9457 51.6618 60.9429 50.8375 60.1078C50.0501 59.3376 49.1068 58.7449 48.0711 58.3698C47.0056 57.9955 45.8837 57.8069 44.7544 57.8122C43.093 57.772 41.4539 58.2012 40.0255 59.0505C38.6967 59.8799 37.6258 61.0637 36.9332 62.4687C36.2006 64.0889 35.8216 65.8467 35.8216 67.6249C35.8216 69.4031 36.2006 71.1609 36.9332 72.7812C37.6384 74.1958 38.744 75.3719 40.1124 76.1631C41.6185 76.9845 43.3146 77.3942 45.0296 77.3508C46.3686 77.3754 47.7003 77.1469 48.9546 76.6773C50.0317 76.2749 50.9992 75.625 51.7789 74.7799C52.5184 73.9587 53.0346 72.9612 53.278 71.8832L49.1067 71.4124C48.9246 71.9241 48.6244 72.3856 48.2304 72.7594C47.8355 73.1237 47.3695 73.4023 46.8617 73.5778C46.2929 73.7703 45.6952 73.8634 45.0947 73.853C44.2071 73.8759 43.3294 73.6609 42.5529 73.2302C41.822 72.8101 41.2322 72.1825 40.8583 71.4269C40.4516 70.5803 40.2483 69.6503 40.2645 68.7112H53.4228V67.3497ZM40.2282 65.7131C40.2649 64.9891 40.4602 64.282 40.8004 63.6419C41.1771 62.9372 41.7313 62.3432 42.408 61.9183C43.1101 61.4978 43.9101 61.2685 44.7283 61.2533C45.5465 61.238 46.3545 61.4373 47.0718 61.8314C47.7076 62.2147 48.228 62.7627 48.5781 63.4174C48.9497 64.1252 49.1412 64.9137 49.1357 65.7131H40.2282Z" fill="#C5003E"/>
<path d="M68.0078 61.9835V57.8701C67.754 57.8246 67.4976 57.7956 67.2401 57.7832C66.9287 57.7832 66.6536 57.7469 66.4073 57.7469C65.3708 57.7306 64.3561 58.0452 63.5106 58.6449C62.6506 59.2674 62.0236 60.1596 61.7291 61.1796H61.5553V58.0221H57.2102V76.9814H61.6784V65.8362C61.6571 65.074 61.8504 64.3212 62.2361 63.6636C62.6023 63.0788 63.1171 62.6015 63.7279 62.2804C64.3962 61.9247 65.1433 61.7429 65.9004 61.7517C66.2951 61.754 66.6894 61.7806 67.0808 61.8314C67.3937 61.8546 67.7039 61.9055 68.0078 61.9835V61.9835Z" fill="#C5003E"/>
<path d="M71.636 60.4842C70.9797 61.3594 70.6424 62.4326 70.6801 63.5258C70.6521 64.1549 70.7527 64.7831 70.9755 65.372C71.1984 65.961 71.5389 66.4983 71.9764 66.9513C73.1081 67.983 74.5233 68.6515 76.039 68.8704L79.2761 69.5511C79.9741 69.6627 80.6349 69.9409 81.2024 70.3622C81.4018 70.5218 81.5622 70.7248 81.6714 70.9557C81.7805 71.1866 81.8356 71.4393 81.8325 71.6947C81.8254 72.0242 81.7329 72.3463 81.5641 72.6293C81.3952 72.9124 81.1559 73.1468 80.8693 73.3096C80.1004 73.7819 79.207 74.0116 78.3057 73.9687C77.4229 74.0089 76.5488 73.779 75.8 73.3096C75.1423 72.8557 74.6897 72.1611 74.54 71.3761L70.1949 71.7961C70.3041 72.6165 70.5866 73.4044 71.0236 74.1073C71.4606 74.8103 72.0421 75.4122 72.7295 75.8733C74.4061 76.9173 76.3622 77.4227 78.3347 77.3217C79.7697 77.3497 81.1957 77.0886 82.5277 76.554C83.6687 76.1205 84.6701 75.3845 85.4244 74.4249C86.1126 73.52 86.4795 72.4115 86.4672 71.2747C86.4886 70.6634 86.3817 70.0543 86.1534 69.4868C85.9252 68.9193 85.5806 68.4059 85.142 67.9796C83.9972 67.0125 82.6099 66.3764 81.13 66.1402L77.9002 65.416C77.1561 65.2883 76.4492 64.9991 75.829 64.5687C75.6299 64.4068 75.4713 64.2008 75.3657 63.967C75.2601 63.7332 75.2105 63.478 75.2207 63.2217C75.2189 62.9209 75.2929 62.6246 75.4359 62.36C75.579 62.0955 75.7864 61.8713 76.039 61.7081C76.745 61.2877 77.5569 61.0791 78.3781 61.107C78.9796 61.0885 79.5779 61.2023 80.1306 61.4402C80.574 61.6376 80.9638 61.938 81.2676 62.3164C81.5447 62.6577 81.7493 63.052 81.8687 63.4751L85.9458 63.0334C85.6831 61.492 84.828 60.1145 83.5633 59.1952C82.0155 58.158 80.1735 57.6498 78.3129 57.7468C76.9434 57.7228 75.5826 57.9689 74.3082 58.471C73.2493 58.8835 72.3246 59.5801 71.636 60.4842Z" fill="#C5003E"/>
<path d="M98.865 77.0682C99.2081 76.9968 99.5467 76.9049 99.8788 76.7931L99.1547 73.3025C98.7283 73.4104 98.2909 73.4687 97.8511 73.4763C97.5054 73.4805 97.1618 73.4216 96.8373 73.3025C96.5279 73.1753 96.272 72.945 96.1131 72.6507C95.8996 72.2248 95.8022 71.7502 95.8307 71.2747V61.4764H99.5747V58.022H95.8307V53.4741H91.3625V58.022H88.6396V61.4764H91.3263V72.0206C91.2824 73.0632 91.5523 74.095 92.1011 74.9826C92.6177 75.7666 93.3602 76.3752 94.2302 76.7279C95.1887 77.1126 96.2183 77.288 97.2501 77.2421C97.7926 77.2344 98.3333 77.1762 98.865 77.0682V77.0682Z" fill="#C5003E"/>
<path d="M106.556 76.1631C108.062 76.9855 109.758 77.3952 111.473 77.3508C112.812 77.374 114.144 77.1455 115.398 76.6773C116.475 76.2749 117.443 75.625 118.223 74.7799C118.957 73.955 119.472 72.959 119.722 71.8832L115.55 71.4124C115.366 71.9228 115.066 72.3837 114.674 72.7594C114.276 73.1239 113.808 73.4024 113.298 73.5778C112.728 73.7769 112.128 73.8749 111.524 73.8675C110.634 73.8914 109.754 73.6763 108.975 73.2446C108.246 72.8245 107.658 72.1967 107.287 71.4414C106.878 70.5954 106.672 69.6654 106.686 68.7257H119.888V67.3497C119.919 65.8862 119.686 64.429 119.2 63.048C118.791 61.9439 118.149 60.941 117.317 60.1078C116.531 59.336 115.587 58.7431 114.551 58.3698C113.488 57.9949 112.368 57.8063 111.241 57.8122C109.58 57.772 107.941 58.2012 106.513 59.0505C105.165 59.8845 104.081 61.0819 103.384 62.5049C102.647 64.1239 102.265 65.8822 102.265 67.6611C102.265 69.4401 102.647 71.1984 103.384 72.8174C104.088 74.2209 105.192 75.3849 106.556 76.1631ZM108.895 61.9183C109.596 61.4977 110.395 61.2684 111.212 61.2531C112.029 61.2379 112.836 61.4373 113.552 61.8314C114.19 62.2143 114.712 62.7622 115.065 63.4174C115.437 64.1252 115.628 64.9137 115.623 65.7131H106.715C106.749 64.9896 106.942 64.2824 107.28 63.6419C107.658 62.9354 108.215 62.3409 108.895 61.9183V61.9183Z" fill="#C5003E"/>
<path d="M133.915 57.7759C132.663 57.7285 131.423 58.0509 130.352 58.7029C129.422 59.3208 128.702 60.2075 128.289 61.2448H128.064V51.7H123.719V76.9814H128.18V65.9013C128.155 65.0926 128.335 64.2907 128.701 63.5694C129.037 62.9588 129.539 62.4563 130.15 62.121C130.802 61.7719 131.532 61.5949 132.272 61.6069C132.779 61.5771 133.287 61.6574 133.761 61.8424C134.235 62.0274 134.663 62.3127 135.016 62.6787C135.713 63.5084 136.065 64.5735 136.001 65.6551V76.9814H140.469V64.9092C140.507 63.5673 140.229 62.2352 139.658 61.0203C139.163 59.9997 138.367 59.1555 137.377 58.6015C136.315 58.0278 135.122 57.7431 133.915 57.7759Z" fill="#C5003E"/>
<path d="M161.811 67.3496C161.842 65.886 161.609 64.4288 161.123 63.0479C160.71 61.9425 160.063 60.9395 159.226 60.1077C158.439 59.3359 157.496 58.743 156.459 58.3697C155.396 57.9955 154.277 57.8069 153.15 57.812C151.504 57.7677 149.879 58.1841 148.457 59.0142C147.106 59.8438 146.021 61.0424 145.329 62.4686C144.591 64.0876 144.21 65.8459 144.21 67.6248C144.21 69.4038 144.591 71.1621 145.329 72.7811C146.029 74.199 147.136 75.3763 148.508 76.163C150.013 76.9864 151.71 77.3962 153.425 77.3507C154.764 77.3739 156.095 77.1454 157.35 76.6772C158.426 76.277 159.392 75.6267 160.167 74.7798C160.907 73.9577 161.425 72.9608 161.673 71.8831L157.495 71.4123C157.315 71.9253 157.015 72.3874 156.619 72.7593C156.225 73.1251 155.758 73.4039 155.25 73.5777C154.681 73.7702 154.083 73.8633 153.483 73.8529C152.595 73.8758 151.718 73.6608 150.941 73.2301C150.186 72.827 149.572 72.2029 149.181 71.4413C148.772 70.5952 148.566 69.6653 148.58 68.7256H161.782L161.811 67.3496ZM148.624 65.713C148.658 64.9895 148.85 64.2823 149.188 63.6418C149.566 62.9352 150.123 62.3407 150.803 61.9182C151.504 61.4976 152.303 61.2682 153.12 61.253C153.937 61.2377 154.744 61.4372 155.46 61.8313C156.098 62.2142 156.621 62.7621 156.973 63.4173C157.342 64.1263 157.533 64.914 157.531 65.713H148.624Z" fill="#C5003E"/>
<path d="M165.591 58.022V76.9813H170.059V65.9012C170.034 65.0941 170.208 64.2931 170.566 63.5693C170.899 62.9572 171.402 62.4543 172.015 62.121C172.653 61.7717 173.372 61.5945 174.1 61.6068C174.603 61.5803 175.105 61.663 175.573 61.8493C176.04 62.0356 176.462 62.321 176.809 62.6858C177.502 63.5144 177.851 64.5767 177.786 65.655V76.9813H182.254V64.9091C182.306 63.5745 182.032 62.2475 181.458 61.0419C180.96 60.0262 180.171 59.1817 179.191 58.6159C178.145 58.0356 176.962 57.7455 175.766 57.7758C174.512 57.731 173.273 58.0559 172.203 58.71C171.26 59.3185 170.529 60.2039 170.11 61.2447H169.885V58.022H165.591Z" fill="#C5003E"/>
<path d="M190.872 76.8874C191.279 76.6487 191.62 76.3127 191.864 75.9097C192.113 75.4937 192.246 75.0185 192.248 74.5337C192.243 73.9988 192.081 73.4772 191.781 73.0344C191.481 72.5915 191.057 72.2472 190.561 72.0445C190.066 71.8418 189.523 71.7899 188.998 71.8952C188.474 72.0005 187.992 72.2583 187.613 72.6364C187.361 72.8868 187.161 73.1846 187.024 73.5128C186.888 73.8409 186.817 74.1928 186.817 74.5482C186.817 74.9037 186.888 75.2556 187.024 75.5837C187.161 75.9118 187.361 76.2097 187.613 76.4601C187.863 76.7153 188.162 76.917 188.492 77.0527C188.822 77.1885 189.176 77.2554 189.533 77.2495C190.004 77.2569 190.469 77.1314 190.872 76.8874V76.8874Z" fill="#C5003E"/>
<path d="M30.821 92.9063V89.0681H14.3821V114.35H30.9224V110.511H18.9589V103.61H29.9737V99.7716H18.9589V92.9063H30.821Z" fill="#C5003E"/>
<path d="M51.9455 114.35V102.277C51.9898 100.943 51.7168 99.618 51.1489 98.4101C50.6503 97.3924 49.8583 96.5474 48.8749 95.9841C47.8288 95.4028 46.6459 95.1127 45.4496 95.144C44.1984 95.1002 42.9619 95.4251 41.8938 96.0782C40.9492 96.6845 40.2175 97.5707 39.801 98.6129H39.5765V95.3903H35.3038V114.35H39.772V103.24C39.7489 102.433 39.9255 101.632 40.2862 100.909C40.6195 100.296 41.1224 99.7935 41.7345 99.4602C42.3708 99.1109 43.0872 98.9337 43.8129 98.946C44.3155 98.9196 44.8179 99.0023 45.2854 99.1886C45.753 99.3748 46.1746 99.6602 46.5213 100.025C47.2197 100.851 47.5725 101.915 47.5062 102.994V114.35H51.9455Z" fill="#C5003E"/>
<path d="M58.5283 112.351C59.0448 113.135 59.7873 113.744 60.6573 114.096C61.618 114.482 62.6502 114.657 63.6844 114.61C64.2246 114.603 64.7628 114.544 65.2921 114.437C65.6374 114.364 65.9783 114.272 66.3132 114.161L65.589 110.671C65.4127 110.718 65.2338 110.754 65.0531 110.779C64.7974 110.825 64.538 110.847 64.2782 110.845C63.9349 110.849 63.5937 110.79 63.2716 110.671C62.9622 110.544 62.7063 110.313 62.5475 110.019C62.3402 109.591 62.2455 109.118 62.2723 108.643V98.8448H66.009V95.3904H62.2288V90.8425H57.7606V95.3904H55.0377V98.8448H57.7317V109.389C57.6942 110.434 57.9718 111.466 58.5283 112.351V112.351Z" fill="#C5003E"/>
<path d="M78.284 114.35L81.8397 101.539H82.1004L85.6561 114.35H90.3126L95.6788 95.3904H91.1092L87.8286 108.643H87.6404L84.2367 95.3904H79.7323L76.3214 108.723H76.1549L72.8164 95.3904H68.2613L73.6202 114.35H78.284Z" fill="#C5003E"/>
<path d="M102.884 88.5612C102.643 88.3265 102.357 88.1417 102.044 88.0174C101.731 87.8932 101.396 87.8318 101.059 87.837C100.38 87.8313 99.7252 88.0912 99.2345 88.5612C98.9942 88.7771 98.8021 89.0412 98.6706 89.3363C98.5391 89.6314 98.4711 89.9508 98.4711 90.2739C98.4711 90.5969 98.5391 90.9164 98.6706 91.2114C98.8021 91.5065 98.9942 91.7706 99.2345 91.9866C99.7309 92.4349 100.376 92.6831 101.045 92.6831C101.714 92.6831 102.359 92.4349 102.855 91.9866C103.097 91.7728 103.29 91.5096 103.421 91.2147C103.553 90.9198 103.619 90.6002 103.616 90.2775C103.622 89.956 103.56 89.6367 103.434 89.3409C103.308 89.045 103.121 88.7793 102.884 88.5612V88.5612Z" fill="#C5003E"/>
<path d="M103.283 95.3904H98.8143V114.35H103.283V95.3904Z" fill="#C5003E"/>
<path d="M119.997 107.904C119.89 108.531 119.642 109.125 119.272 109.642C118.935 110.112 118.484 110.489 117.962 110.736C117.288 111.036 116.549 111.16 115.814 111.095C115.079 111.03 114.373 110.78 113.761 110.367C113.038 109.82 112.486 109.079 112.168 108.23C111.405 106.092 111.405 103.756 112.168 101.618C112.494 100.778 113.055 100.049 113.783 99.5183C114.487 99.0268 115.329 98.7731 116.187 98.7941C117.137 98.7496 118.065 99.08 118.773 99.7139C119.421 100.325 119.854 101.131 120.004 102.01H124.277C124.217 100.737 123.806 99.5052 123.09 98.451C122.375 97.3967 121.382 96.5606 120.221 96.035C118.936 95.4561 117.539 95.1692 116.13 95.1949C114.443 95.1514 112.777 95.5803 111.321 96.4333C109.964 97.2601 108.873 98.4591 108.178 99.8877C107.452 101.487 107.076 103.223 107.076 104.979C107.076 106.735 107.452 108.471 108.178 110.07C108.865 111.497 109.948 112.697 111.299 113.524C112.773 114.387 114.459 114.819 116.166 114.77C117.597 114.803 119.017 114.506 120.315 113.901C121.445 113.359 122.408 112.524 123.103 111.482C123.791 110.408 124.192 109.177 124.269 107.904H119.997Z" fill="#C5003E"/>
<path d="M132.721 103.009H132.416V89.0681H127.948V114.35H132.416V107.977L134.039 106.231L139.847 114.35H145.191L137.406 103.574L144.756 95.3903H139.535L132.721 103.009Z" fill="#C5003E"/>
<path d="M159.399 108.795C159.217 109.307 158.917 109.768 158.523 110.142C158.127 110.505 157.661 110.783 157.154 110.96C156.585 111.153 155.988 111.246 155.387 111.236C154.5 111.259 153.622 111.044 152.845 110.613C152.114 110.193 151.525 109.565 151.151 108.81C150.742 107.964 150.536 107.034 150.55 106.094H163.759V104.718C163.782 103.252 163.536 101.794 163.035 100.416C162.626 99.2979 161.979 98.2822 161.137 97.4399C160.354 96.6682 159.412 96.0752 158.378 95.7018C157.313 95.3276 156.191 95.1389 155.061 95.1442C153.4 95.104 151.761 95.5332 150.332 96.3825C148.985 97.2165 147.901 98.4139 147.204 99.8369C146.471 101.457 146.092 103.215 146.092 104.993C146.092 106.771 146.471 108.529 147.204 110.149C147.907 111.566 149.013 112.742 150.383 113.531C151.889 114.354 153.585 114.763 155.3 114.719C156.639 114.743 157.971 114.514 159.225 114.046C160.303 113.643 161.27 112.993 162.05 112.148C162.789 111.327 163.305 110.329 163.549 109.251L159.399 108.795ZM152.744 99.2866C153.446 98.866 154.246 98.6367 155.064 98.6215C155.883 98.6062 156.69 98.8056 157.408 99.1996C158.044 99.583 158.564 100.131 158.914 100.786C159.286 101.493 159.477 102.282 159.472 103.081H150.564C150.601 102.357 150.796 101.65 151.136 101.01C151.513 100.305 152.067 99.7114 152.744 99.2866V99.2866Z" fill="#C5003E"/>
<path d="M172 89.0681H167.532V114.35H172V89.0681Z" fill="#C5003E"/>
<path d="M183.218 96.0783C182.273 96.6846 181.541 97.5707 181.125 98.613H180.9V95.3903H176.627V114.35H181.045V103.241C181.022 102.433 181.198 101.632 181.559 100.909C181.892 100.297 182.395 99.7936 183.008 99.4603C183.644 99.111 184.36 98.9337 185.086 98.9461C185.588 98.9196 186.091 99.0023 186.558 99.1886C187.026 99.3749 187.448 99.6603 187.794 100.025C188.493 100.851 188.845 101.915 188.779 102.994V114.35H193.247V102.277C193.292 100.943 193.019 99.618 192.451 98.4102C191.952 97.3924 191.16 96.5474 190.177 95.9841C189.131 95.4028 187.948 95.1128 186.752 95.1441C185.508 95.1046 184.279 95.4293 183.218 96.0783V96.0783Z" fill="#C5003E"/>
<path d="M200.54 109.215C200.182 109.21 199.827 109.277 199.496 109.412C199.165 109.548 198.865 109.749 198.614 110.005C198.108 110.512 197.824 111.2 197.824 111.916C197.824 112.633 198.108 113.321 198.614 113.828C198.865 114.083 199.165 114.285 199.496 114.421C199.827 114.556 200.182 114.623 200.54 114.618C201.012 114.624 201.476 114.499 201.88 114.256C202.284 114.016 202.623 113.68 202.865 113.278C203.119 112.864 203.254 112.388 203.256 111.902C203.241 111.189 202.949 110.51 202.442 110.009C201.935 109.507 201.253 109.223 200.54 109.215V109.215Z" fill="#C5003E"/>
<path d="M0 0V128.913H117.129V126.741H2.17254V2.17257H215.82V126.741H209.476V128.913H217.993V0H0Z" fill="#C5003E"/>
<path d="M129.78 124.177C129.703 124.166 129.625 124.166 129.549 124.177C129.476 124.199 129.41 124.236 129.353 124.286C129.291 124.34 129.242 124.406 129.208 124.481C129.162 124.568 129.137 124.665 129.136 124.764C129.191 124.779 129.245 124.801 129.295 124.829C129.347 124.859 129.394 124.898 129.433 124.945C129.472 124.998 129.504 125.056 129.527 125.118C129.556 125.192 129.571 125.271 129.57 125.35C129.568 125.509 129.547 125.667 129.505 125.821C129.461 126.019 129.393 126.211 129.302 126.393C129.187 126.644 129.054 126.886 128.904 127.117C128.708 127.412 128.498 127.698 128.274 127.972H128.216C128.216 127.87 128.216 127.733 128.216 127.552C128.216 127.371 128.216 127.175 128.216 126.951C128.216 126.726 128.216 126.494 128.216 126.226C128.216 125.959 128.216 125.734 128.173 125.502C128.129 125.271 128.173 125.039 128.129 124.829C128.086 124.619 128.129 124.445 128.078 124.3H127.021C126.898 124.626 126.768 124.945 126.63 125.263C126.492 125.582 126.355 125.886 126.21 126.19C126.065 126.494 125.928 126.77 125.783 127.045C125.638 127.32 125.493 127.566 125.348 127.769H125.29V127.544C125.29 127.407 125.29 127.233 125.29 127.009C125.29 126.893 125.29 126.741 125.29 126.538C125.29 126.335 125.29 126.111 125.29 125.864C125.29 125.618 125.29 125.343 125.29 125.061L125.247 124.191H123.567L123.429 124.655H123.48C123.557 124.647 123.635 124.647 123.712 124.655C123.78 124.673 123.844 124.705 123.9 124.749C123.955 124.804 123.997 124.871 124.023 124.945C124.061 125.049 124.081 125.159 124.081 125.271L124.168 128.891L125.305 128.812C125.679 128.259 126.018 127.684 126.319 127.088C126.608 126.509 126.869 125.951 127.094 125.415C127.094 125.538 127.094 125.683 127.094 125.85C127.094 126.016 127.094 126.205 127.094 126.408C127.094 126.61 127.094 126.82 127.094 127.038V127.704C127.094 127.921 127.094 128.138 127.094 128.341C127.094 128.544 127.094 128.747 127.094 128.92L128.151 128.834C128.441 128.515 128.723 128.182 128.998 127.841C129.261 127.512 129.503 127.166 129.722 126.806C129.923 126.482 130.093 126.14 130.229 125.785C130.353 125.483 130.419 125.162 130.425 124.836C130.435 124.64 130.379 124.446 130.265 124.286C130.199 124.23 130.12 124.191 130.036 124.173C129.952 124.154 129.864 124.155 129.78 124.177V124.177Z" fill="#C5003E"/>
<path d="M137.384 124.177C137.308 124.166 137.229 124.166 137.153 124.177C137.08 124.198 137.014 124.235 136.957 124.285C136.895 124.339 136.846 124.406 136.812 124.481C136.766 124.568 136.741 124.665 136.74 124.763C136.795 124.779 136.849 124.801 136.899 124.829C136.952 124.859 136.998 124.898 137.037 124.944C137.077 124.997 137.108 125.056 137.131 125.118C137.161 125.192 137.175 125.271 137.174 125.35C137.173 125.509 137.151 125.667 137.109 125.821C137.065 126.019 136.997 126.211 136.906 126.393C136.792 126.644 136.658 126.886 136.508 127.117C136.313 127.412 136.102 127.697 135.878 127.972H135.82C135.82 127.87 135.82 127.733 135.82 127.552C135.82 127.37 135.82 127.175 135.82 126.95C135.82 126.726 135.82 126.494 135.82 126.226C135.82 125.958 135.82 125.734 135.777 125.502C135.733 125.27 135.777 125.039 135.733 124.829C135.69 124.619 135.733 124.445 135.683 124.3H134.625C134.502 124.626 134.372 124.944 134.234 125.263C134.097 125.582 133.959 125.886 133.814 126.19C133.669 126.494 133.532 126.769 133.387 127.045C133.242 127.32 133.097 127.566 132.952 127.769H132.894V127.544C132.894 127.407 132.894 127.233 132.894 127.008C132.894 126.892 132.894 126.74 132.894 126.538C132.894 126.335 132.894 126.11 132.894 125.864C132.894 125.618 132.894 125.343 132.894 125.06L132.851 124.191H131.077L130.939 124.655H130.99C131.067 124.647 131.145 124.647 131.222 124.655C131.29 124.673 131.354 124.705 131.41 124.749C131.465 124.804 131.507 124.871 131.533 124.944C131.571 125.049 131.591 125.159 131.591 125.27L131.678 128.891L132.815 128.812C133.189 128.259 133.528 127.683 133.829 127.088C134.118 126.509 134.379 125.951 134.604 125.415C134.604 125.538 134.604 125.683 134.604 125.85C134.604 126.016 134.604 126.205 134.604 126.407C134.604 126.61 134.604 126.82 134.604 127.037V127.704C134.604 127.921 134.604 128.138 134.604 128.341C134.604 128.544 134.604 128.746 134.604 128.92L135.661 128.833C135.95 128.515 136.233 128.182 136.508 127.841C136.771 127.511 137.013 127.166 137.232 126.806C137.433 126.482 137.603 126.14 137.739 125.784C137.863 125.483 137.929 125.161 137.935 124.836C137.945 124.64 137.889 124.446 137.775 124.285C137.664 124.2 137.524 124.161 137.384 124.177V124.177Z" fill="#C5003E"/>
<path d="M145.437 124.365C145.382 124.301 145.313 124.25 145.235 124.218C145.157 124.185 145.072 124.171 144.988 124.177C144.911 124.166 144.833 124.166 144.756 124.177C144.684 124.198 144.617 124.235 144.561 124.285C144.499 124.339 144.45 124.406 144.416 124.481C144.37 124.568 144.345 124.665 144.344 124.763C144.399 124.779 144.452 124.801 144.503 124.829C144.555 124.859 144.602 124.898 144.64 124.944C144.68 124.997 144.712 125.056 144.735 125.118C144.764 125.192 144.779 125.271 144.778 125.35C144.776 125.509 144.754 125.667 144.713 125.821C144.669 126.019 144.601 126.211 144.51 126.393C144.395 126.644 144.262 126.886 144.112 127.117C143.916 127.412 143.706 127.697 143.482 127.972H143.424C143.424 127.87 143.424 127.733 143.424 127.552C143.424 127.37 143.424 127.175 143.424 126.95C143.424 126.726 143.424 126.494 143.424 126.226C143.424 125.958 143.424 125.734 143.38 125.502C143.337 125.27 143.38 125.039 143.337 124.829C143.293 124.619 143.337 124.445 143.286 124.3H142.229C142.106 124.626 141.975 124.944 141.838 125.263C141.7 125.582 141.563 125.886 141.418 126.19C141.273 126.494 141.135 126.769 140.991 127.045C140.846 127.32 140.701 127.566 140.556 127.769H140.498V127.544C140.498 127.407 140.498 127.233 140.498 127.008C140.498 126.892 140.498 126.74 140.498 126.538C140.498 126.335 140.498 126.11 140.498 125.864C140.498 125.618 140.498 125.343 140.498 125.06L140.455 124.191H138.775L138.637 124.655H138.688C138.765 124.647 138.842 124.647 138.919 124.655C138.988 124.673 139.052 124.705 139.108 124.749C139.163 124.804 139.205 124.871 139.231 124.944C139.269 125.049 139.289 125.159 139.289 125.27L139.376 128.891L140.513 128.812C140.887 128.259 141.225 127.683 141.526 127.088C141.816 126.509 142.077 125.951 142.301 125.415C142.301 125.538 142.301 125.683 142.301 125.85C142.301 126.016 142.301 126.205 142.301 126.407C142.301 126.61 142.301 126.82 142.301 127.037V127.704C142.301 127.921 142.301 128.138 142.301 128.341C142.301 128.544 142.301 128.746 142.301 128.92L143.359 128.833C143.648 128.515 143.931 128.182 144.206 127.841C144.469 127.511 144.711 127.166 144.93 126.806C145.131 126.482 145.3 126.14 145.437 125.784C145.561 125.483 145.627 125.161 145.633 124.836C145.615 124.663 145.547 124.499 145.437 124.365Z" fill="#C5003E"/>
<path d="M146.835 127.733C146.767 127.681 146.691 127.642 146.61 127.617C146.52 127.594 146.428 127.581 146.335 127.581C146.226 127.58 146.118 127.6 146.017 127.639C145.93 127.674 145.852 127.725 145.785 127.791C145.714 127.859 145.662 127.943 145.633 128.037C145.595 128.141 145.575 128.252 145.575 128.363C145.568 128.451 145.582 128.54 145.616 128.621C145.65 128.703 145.703 128.776 145.77 128.833C145.92 128.94 146.101 128.994 146.285 128.985C146.375 128.984 146.465 128.972 146.552 128.949C146.644 128.922 146.728 128.875 146.799 128.812C146.876 128.748 146.935 128.666 146.972 128.573C147.012 128.446 147.024 128.313 147.009 128.182C147.009 128.087 146.989 127.993 146.951 127.906C146.927 127.84 146.887 127.78 146.835 127.733V127.733Z" fill="#C5003E"/>
<path d="M155.648 128.232C155.57 128.264 155.486 128.282 155.402 128.283C155.359 128.285 155.316 128.277 155.277 128.26C155.238 128.242 155.204 128.215 155.177 128.182C155.117 128.098 155.089 127.995 155.098 127.892C155.087 127.762 155.087 127.631 155.098 127.501C155.098 127.363 155.148 127.218 155.185 127.059L155.387 126.132C155.387 126.053 155.387 125.973 155.438 125.886C155.489 125.799 155.438 125.719 155.489 125.632C155.539 125.546 155.489 125.466 155.525 125.379C155.532 125.302 155.532 125.224 155.525 125.147C155.523 125.018 155.506 124.889 155.474 124.763C155.441 124.647 155.384 124.539 155.308 124.445C155.226 124.352 155.124 124.278 155.011 124.228C154.868 124.171 154.715 124.144 154.562 124.148C154.388 124.147 154.215 124.169 154.048 124.213C153.896 124.256 153.752 124.322 153.62 124.409C153.48 124.499 153.353 124.609 153.244 124.734C153.122 124.879 153.011 125.031 152.911 125.191H152.86V125.118C152.86 124.996 152.846 124.875 152.817 124.756C152.782 124.648 152.728 124.547 152.657 124.459C152.575 124.368 152.474 124.296 152.36 124.249C152.214 124.196 152.059 124.171 151.904 124.177C151.743 124.175 151.583 124.192 151.426 124.228C151.279 124.263 151.138 124.32 151.006 124.394C150.865 124.478 150.736 124.58 150.622 124.698C150.494 124.838 150.378 124.988 150.275 125.147H150.209L150.376 124.257H148.363L148.283 124.72H148.442H148.652C148.702 124.723 148.75 124.741 148.79 124.771C148.827 124.8 148.856 124.837 148.877 124.879C148.886 124.944 148.886 125.01 148.877 125.075C148.88 125.092 148.88 125.109 148.877 125.126C148.88 125.157 148.88 125.188 148.877 125.22V125.328V125.444L148.153 128.906H149.456L149.942 126.733C149.967 126.61 150.004 126.489 150.05 126.371C150.098 126.235 150.153 126.102 150.217 125.973C150.275 125.837 150.345 125.706 150.427 125.582C150.502 125.462 150.587 125.348 150.68 125.241C150.757 125.146 150.85 125.065 150.955 125.002C151.039 124.948 151.137 124.917 151.238 124.916C151.292 124.912 151.346 124.928 151.39 124.959C151.432 124.986 151.463 125.027 151.477 125.075C151.485 125.125 151.485 125.177 151.477 125.227C151.48 125.282 151.48 125.338 151.477 125.394C151.484 125.473 151.484 125.553 151.477 125.632C151.477 125.727 151.477 125.814 151.433 125.908L151.39 126.161C151.39 126.241 151.39 126.313 151.346 126.364L151.216 126.972C151.216 127.059 151.18 127.161 151.151 127.284L151.086 127.66L151.021 128.066L150.955 128.435C150.955 128.551 150.955 128.645 150.919 128.732C150.883 128.819 150.919 128.877 150.919 128.913H152.266C152.266 128.913 152.266 128.841 152.266 128.761C152.266 128.681 152.266 128.594 152.266 128.486C152.266 128.377 152.266 128.269 152.31 128.145C152.353 128.022 152.346 127.899 152.36 127.776C152.375 127.653 152.396 127.552 152.411 127.443C152.425 127.334 152.411 127.262 152.411 127.204L152.483 126.835C152.504 126.707 152.536 126.581 152.578 126.458C152.624 126.312 152.679 126.169 152.744 126.031C152.804 125.886 152.874 125.746 152.954 125.611C153.027 125.482 153.109 125.358 153.2 125.241C153.28 125.148 153.37 125.063 153.468 124.988C153.55 124.926 153.648 124.891 153.751 124.887C153.808 124.885 153.864 124.9 153.913 124.929C153.962 124.959 154.001 125.002 154.026 125.053C154.053 125.103 154.072 125.157 154.084 125.212C154.087 125.27 154.087 125.328 154.084 125.386C154.084 125.459 154.084 125.538 154.084 125.625L154.04 125.893C154.04 125.98 154.04 126.067 153.99 126.147L153.939 126.357L153.794 127.045C153.743 127.262 153.707 127.465 153.686 127.631C153.676 127.778 153.676 127.926 153.686 128.073C153.678 128.196 153.699 128.319 153.745 128.433C153.791 128.547 153.862 128.649 153.953 128.732C154.168 128.904 154.439 128.989 154.714 128.971C154.863 128.973 155.011 128.956 155.156 128.92C155.281 128.888 155.402 128.842 155.518 128.783C155.621 128.728 155.718 128.662 155.807 128.587C155.895 128.524 155.975 128.451 156.046 128.37L155.844 128.073C155.781 128.129 155.715 128.182 155.648 128.232Z" fill="#C5003E"/>
<path d="M161.304 128.268C161.232 128.303 161.152 128.321 161.072 128.319C161.029 128.321 160.986 128.311 160.946 128.293C160.907 128.274 160.873 128.245 160.848 128.211C160.782 128.118 160.751 128.005 160.761 127.892C160.755 127.822 160.755 127.752 160.761 127.682C160.761 127.595 160.761 127.508 160.761 127.421C160.761 127.334 160.797 127.247 160.811 127.168C160.823 127.104 160.837 127.041 160.855 126.979L161.427 124.271H160.963L160.507 124.474L160.268 124.365L159.964 124.271L159.624 124.199C159.508 124.191 159.392 124.191 159.276 124.199C158.999 124.193 158.723 124.243 158.465 124.343C158.219 124.436 157.989 124.568 157.784 124.734C157.584 124.902 157.407 125.094 157.256 125.307C157.099 125.52 156.968 125.751 156.865 125.994C156.764 126.228 156.686 126.47 156.633 126.719C156.578 126.956 156.551 127.199 156.553 127.443C156.549 127.656 156.576 127.868 156.633 128.073C156.677 128.255 156.755 128.427 156.865 128.58C156.966 128.719 157.097 128.833 157.248 128.913C157.418 128.994 157.604 129.033 157.792 129.029C157.981 129.035 158.169 129.008 158.349 128.949C158.506 128.894 158.653 128.814 158.784 128.71C158.922 128.597 159.042 128.462 159.139 128.312C159.257 128.139 159.366 127.96 159.464 127.776H159.522C159.522 127.892 159.486 127.986 159.472 128.073C159.457 128.16 159.472 128.247 159.472 128.341C159.465 128.439 159.482 128.537 159.523 128.627C159.563 128.717 159.625 128.795 159.703 128.855C159.884 128.979 160.1 129.04 160.319 129.029C160.465 129.03 160.611 129.016 160.753 128.985C160.882 128.952 161.008 128.908 161.13 128.855C161.239 128.81 161.343 128.754 161.441 128.688C161.529 128.636 161.614 128.578 161.695 128.515L161.499 128.167L161.304 128.268ZM159.711 126.415C159.61 126.875 159.429 127.314 159.175 127.711C159.072 127.876 158.942 128.023 158.791 128.145C158.684 128.246 158.546 128.305 158.4 128.312C158.335 128.312 158.27 128.297 158.212 128.268C158.147 128.233 158.095 128.181 158.06 128.116C158.014 128.03 157.982 127.937 157.965 127.841C157.952 127.702 157.952 127.561 157.965 127.421C157.967 127.244 157.981 127.067 158.009 126.892C158.038 126.692 158.082 126.493 158.139 126.299C158.196 126.098 158.269 125.902 158.356 125.712C158.434 125.534 158.533 125.366 158.653 125.212C158.757 125.075 158.885 124.957 159.03 124.865C159.146 124.789 159.278 124.743 159.416 124.731C159.553 124.718 159.692 124.739 159.819 124.792C159.915 124.824 159.997 124.888 160.051 124.973L159.711 126.415Z" fill="#C5003E"/>
<path d="M164.918 123.192H164.389C164.267 123.397 164.121 123.586 163.954 123.757C163.818 123.903 163.662 124.03 163.491 124.133C163.353 124.225 163.201 124.296 163.042 124.343C162.911 124.384 162.774 124.406 162.636 124.409L162.542 124.85H163.208L162.687 127.262C162.687 127.313 162.687 127.37 162.687 127.436C162.687 127.501 162.687 127.566 162.687 127.631C162.683 127.694 162.683 127.757 162.687 127.819C162.684 127.875 162.684 127.931 162.687 127.986C162.683 128.14 162.713 128.294 162.774 128.435C162.826 128.559 162.908 128.669 163.013 128.754C163.12 128.84 163.243 128.904 163.375 128.942C163.518 128.984 163.667 129.003 163.817 129C163.972 129.001 164.128 128.986 164.28 128.956C164.416 128.923 164.549 128.879 164.679 128.826C164.8 128.771 164.916 128.706 165.026 128.631C165.132 128.559 165.233 128.482 165.33 128.399L165.128 128.066C165.033 128.13 164.93 128.184 164.823 128.225C164.706 128.271 164.581 128.296 164.454 128.297C164.337 128.3 164.223 128.259 164.135 128.182C164.094 128.139 164.062 128.087 164.042 128.031C164.022 127.975 164.015 127.915 164.02 127.856C164.013 127.764 164.013 127.672 164.02 127.58C164.03 127.463 164.052 127.346 164.085 127.233L164.606 124.85H165.663L165.787 124.256H164.736L164.918 123.192Z" fill="#C5003E"/>
<path d="M170.754 128.261C170.677 128.297 170.593 128.314 170.508 128.312C170.465 128.314 170.423 128.306 170.384 128.289C170.345 128.271 170.31 128.244 170.284 128.211C170.221 128.125 170.19 128.02 170.197 127.914C170.187 127.786 170.187 127.658 170.197 127.53C170.197 127.392 170.248 127.24 170.284 127.088L170.487 126.154C170.487 126.081 170.487 126.002 170.537 125.915C170.588 125.828 170.573 125.741 170.588 125.661C170.602 125.582 170.588 125.488 170.588 125.408C170.595 125.328 170.595 125.249 170.588 125.169C170.586 125.042 170.569 124.915 170.537 124.792C170.503 124.675 170.444 124.566 170.363 124.474C170.283 124.376 170.178 124.301 170.059 124.257C169.912 124.198 169.754 124.171 169.596 124.177C169.418 124.173 169.24 124.192 169.067 124.235C168.909 124.275 168.758 124.338 168.618 124.423C168.478 124.51 168.351 124.618 168.242 124.742C168.114 124.88 168 125.03 167.901 125.191H167.851L167.937 124.836C167.937 124.734 167.988 124.633 168.017 124.524L168.089 124.228L168.495 122.316H166.395L166.315 122.772H166.561H166.779C166.83 122.779 166.879 122.796 166.924 122.823C166.958 122.852 166.985 122.89 167.003 122.931C167.012 122.996 167.012 123.062 167.003 123.127V123.177C167.003 123.177 167.003 123.235 167.003 123.272V123.38C167.007 123.419 167.007 123.458 167.003 123.496L165.837 128.906H167.141L167.597 126.885C167.624 126.757 167.66 126.631 167.706 126.509C167.754 126.364 167.812 126.219 167.879 126.074C167.947 125.929 168.019 125.785 168.097 125.64C168.172 125.509 168.259 125.385 168.357 125.27C168.437 125.169 168.532 125.081 168.64 125.01C168.722 124.944 168.824 124.909 168.93 124.908C168.995 124.905 169.06 124.92 169.118 124.952C169.167 124.98 169.205 125.023 169.226 125.075C169.254 125.124 169.274 125.178 169.284 125.234C169.288 125.29 169.288 125.345 169.284 125.401C169.291 125.48 169.291 125.56 169.284 125.64C169.284 125.734 169.284 125.821 169.284 125.908C169.284 125.995 169.248 126.081 169.234 126.168C169.219 126.255 169.234 126.32 169.183 126.371L169.038 127.059C168.987 127.284 168.951 127.479 168.93 127.653C168.92 127.8 168.92 127.948 168.93 128.095C168.922 128.218 168.943 128.341 168.989 128.455C169.035 128.569 169.107 128.671 169.197 128.754C169.404 128.915 169.66 128.997 169.922 128.985C170.071 128.988 170.219 128.971 170.363 128.935C170.488 128.905 170.61 128.861 170.726 128.804C170.829 128.749 170.926 128.684 171.015 128.609C171.1 128.542 171.18 128.469 171.254 128.392L171.051 128.095L170.754 128.261Z" fill="#C5003E"/>
<path d="M175.621 124.445C175.34 124.249 175 124.154 174.658 124.177C174.358 124.174 174.06 124.218 173.774 124.307C173.517 124.392 173.273 124.514 173.05 124.669C172.836 124.821 172.643 125.002 172.478 125.205C172.16 125.592 171.933 126.045 171.812 126.531C171.756 126.753 171.727 126.982 171.725 127.211C171.719 127.482 171.771 127.751 171.877 128.001C171.969 128.218 172.113 128.409 172.297 128.558C172.477 128.711 172.686 128.825 172.912 128.891C173.147 128.962 173.391 128.999 173.637 129C173.896 129.006 174.154 128.974 174.404 128.906C174.594 128.854 174.775 128.773 174.94 128.667C175.065 128.584 175.171 128.475 175.252 128.348C175.312 128.247 175.347 128.133 175.353 128.015C175.364 127.946 175.364 127.875 175.353 127.805C175.337 127.745 175.31 127.689 175.273 127.639C175.205 127.731 175.13 127.818 175.049 127.899C174.96 127.984 174.863 128.059 174.759 128.124C174.646 128.189 174.527 128.242 174.404 128.283C174.274 128.327 174.137 128.349 173.999 128.348C173.865 128.36 173.731 128.341 173.605 128.294C173.48 128.246 173.367 128.171 173.275 128.073C173.102 127.85 173.017 127.572 173.036 127.291C173.036 127.248 173.036 127.19 173.036 127.132C173.032 127.076 173.032 127.021 173.036 126.965H173.354C173.705 126.968 174.054 126.919 174.39 126.82C174.683 126.739 174.96 126.606 175.208 126.429C175.428 126.282 175.613 126.09 175.751 125.864C175.877 125.662 175.945 125.429 175.947 125.191C175.955 125.05 175.93 124.908 175.873 124.779C175.817 124.649 175.73 124.535 175.621 124.445V124.445ZM174.6 125.756C174.523 125.906 174.414 126.037 174.281 126.14C174.136 126.249 173.971 126.33 173.796 126.378C173.601 126.438 173.398 126.467 173.195 126.465H173.122C173.156 126.253 173.209 126.045 173.282 125.843C173.348 125.643 173.436 125.451 173.542 125.27C173.631 125.112 173.749 124.972 173.89 124.858C173.998 124.757 174.14 124.7 174.288 124.698C174.349 124.696 174.41 124.707 174.465 124.732C174.521 124.758 174.569 124.796 174.607 124.843C174.685 124.969 174.723 125.115 174.716 125.263C174.72 125.435 174.68 125.604 174.6 125.756Z" fill="#C5003E"/>
<path d="M183.826 128.232C183.745 128.264 183.659 128.282 183.573 128.283C183.53 128.284 183.488 128.275 183.449 128.257C183.41 128.24 183.376 128.214 183.348 128.182C183.291 128.096 183.263 127.995 183.268 127.892C183.27 127.761 183.282 127.63 183.305 127.501C183.305 127.363 183.355 127.219 183.392 127.059L183.594 126.132L183.638 125.886C183.638 125.806 183.638 125.719 183.688 125.633C183.739 125.546 183.688 125.466 183.732 125.379C183.739 125.302 183.739 125.224 183.732 125.147C183.733 125.018 183.718 124.889 183.688 124.764C183.655 124.647 183.598 124.539 183.522 124.445C183.438 124.353 183.337 124.28 183.225 124.228C183.082 124.172 182.929 124.145 182.776 124.148C182.602 124.146 182.429 124.168 182.262 124.213C182.108 124.257 181.962 124.323 181.827 124.409C181.691 124.501 181.567 124.611 181.458 124.735C181.334 124.877 181.223 125.03 181.125 125.191H181.074V125.118C181.076 124.996 181.059 124.874 181.023 124.756C180.992 124.647 180.938 124.546 180.864 124.459C180.787 124.366 180.687 124.294 180.574 124.249C180.428 124.196 180.274 124.172 180.118 124.177C179.957 124.174 179.797 124.191 179.64 124.228C179.491 124.265 179.348 124.321 179.213 124.394C179.075 124.478 178.948 124.581 178.836 124.698C178.704 124.835 178.588 124.985 178.489 125.147H178.424L178.59 124.257H176.57L176.497 124.72H176.7H176.91C176.962 124.724 177.012 124.741 177.055 124.771C177.091 124.799 177.119 124.836 177.135 124.879C177.147 124.944 177.147 125.01 177.135 125.075C177.134 125.092 177.134 125.109 177.135 125.126C177.138 125.157 177.138 125.188 177.135 125.22C177.138 125.256 177.138 125.292 177.135 125.328C177.139 125.367 177.139 125.406 177.135 125.444L176.41 128.906H177.714L178.199 126.733C178.226 126.611 178.26 126.49 178.301 126.371C178.351 126.241 178.402 126.111 178.467 125.973C178.531 125.838 178.603 125.707 178.684 125.582C178.74 125.479 178.803 125.38 178.873 125.285C178.951 125.192 179.044 125.111 179.148 125.046C179.234 124.99 179.335 124.96 179.438 124.959C179.492 124.956 179.545 124.971 179.59 125.003C179.628 125.033 179.658 125.073 179.676 125.118C179.681 125.169 179.681 125.22 179.676 125.27C179.68 125.326 179.68 125.382 179.676 125.437C179.676 125.509 179.676 125.589 179.676 125.676L179.633 125.951L179.59 126.205C179.59 126.284 179.59 126.357 179.546 126.407L179.416 127.016C179.416 127.103 179.372 127.204 179.351 127.327L179.285 127.704L179.213 128.109C179.213 128.24 179.17 128.363 179.155 128.479C179.141 128.595 179.155 128.689 179.155 128.776C179.151 128.836 179.151 128.896 179.155 128.957H180.509C180.509 128.957 180.509 128.884 180.509 128.805C180.509 128.725 180.509 128.638 180.509 128.529C180.509 128.421 180.509 128.312 180.56 128.189C180.611 128.066 180.56 127.943 180.611 127.82L180.654 127.487C180.654 127.385 180.669 127.305 180.698 127.248L180.763 126.878C180.787 126.75 180.82 126.624 180.864 126.502C180.908 126.357 180.966 126.219 181.023 126.074C181.089 125.931 181.161 125.791 181.241 125.654C181.311 125.524 181.393 125.4 181.487 125.285C181.565 125.189 181.655 125.104 181.755 125.032C181.834 124.971 181.93 124.936 182.03 124.93C182.092 124.926 182.154 124.944 182.204 124.981C182.252 125.006 182.291 125.047 182.313 125.097C182.34 125.146 182.357 125.2 182.363 125.256C182.37 125.314 182.37 125.372 182.363 125.43C182.37 125.509 182.37 125.589 182.363 125.669C182.363 125.756 182.363 125.85 182.327 125.937C182.291 126.024 182.327 126.111 182.276 126.19L182.226 126.4L182.074 127.088C182.03 127.305 181.994 127.508 181.972 127.675C181.963 127.822 181.963 127.969 181.972 128.117C181.965 128.239 181.985 128.361 182.03 128.475C182.075 128.588 182.144 128.691 182.233 128.776C182.45 128.947 182.724 129.032 183 129.015C183.277 129.019 183.551 128.954 183.797 128.826C183.902 128.771 184.002 128.706 184.094 128.631C184.179 128.564 184.258 128.491 184.333 128.413L184.123 128.117L183.826 128.232Z" fill="#C5003E"/>
<path d="M189.482 128.269C189.407 128.303 189.325 128.32 189.243 128.319C189.201 128.32 189.159 128.311 189.121 128.292C189.083 128.273 189.05 128.245 189.026 128.211C188.96 128.118 188.929 128.005 188.939 127.892C188.939 127.834 188.939 127.762 188.939 127.682L189.011 127.458C189.011 127.371 189.011 127.284 189.062 127.204C189.113 127.124 189.062 127.066 189.098 127.016L189.677 124.307H189.214L188.75 124.51L188.511 124.401L188.207 124.307L187.874 124.235C187.758 124.228 187.642 124.228 187.527 124.235C187.249 124.229 186.974 124.278 186.715 124.38C186.468 124.471 186.238 124.603 186.035 124.771C185.833 124.938 185.653 125.13 185.499 125.343C185.347 125.558 185.219 125.789 185.115 126.031C185.009 126.263 184.929 126.506 184.876 126.755C184.825 126.993 184.798 127.236 184.796 127.479C184.795 127.692 184.822 127.904 184.876 128.109C184.922 128.291 185.001 128.463 185.108 128.616C185.213 128.754 185.347 128.867 185.499 128.949C185.668 129.031 185.854 129.071 186.042 129.065C186.231 129.071 186.42 129.044 186.6 128.986C186.756 128.929 186.903 128.849 187.034 128.747C187.17 128.631 187.29 128.497 187.389 128.348C187.505 128.176 187.611 127.997 187.708 127.812H187.766C187.746 127.911 187.732 128.01 187.722 128.109C187.722 128.196 187.722 128.283 187.722 128.377C187.716 128.475 187.734 128.573 187.775 128.663C187.815 128.752 187.877 128.831 187.954 128.891C188.137 129.015 188.356 129.076 188.577 129.065C188.723 129.067 188.868 129.052 189.011 129.022C189.14 128.988 189.266 128.945 189.388 128.891C189.496 128.845 189.6 128.789 189.699 128.725C189.785 128.672 189.867 128.614 189.945 128.551L189.757 128.203L189.482 128.269ZM187.889 126.415C187.788 126.875 187.607 127.314 187.353 127.711C187.248 127.875 187.118 128.021 186.969 128.146C186.861 128.243 186.723 128.302 186.578 128.312C186.513 128.313 186.448 128.298 186.39 128.269C186.324 128.236 186.27 128.182 186.238 128.117C186.189 128.032 186.157 127.938 186.143 127.841C186.119 127.715 186.11 127.586 186.114 127.458C186.113 127.281 186.125 127.104 186.151 126.929C186.18 126.728 186.224 126.53 186.281 126.335C186.338 126.134 186.411 125.938 186.498 125.748C186.581 125.573 186.68 125.405 186.795 125.249C186.903 125.112 187.033 124.995 187.179 124.901C187.316 124.809 187.478 124.761 187.642 124.764C187.752 124.763 187.861 124.785 187.961 124.829C188.059 124.861 188.143 124.925 188.2 125.01L187.889 126.415Z" fill="#C5003E"/>
<path d="M191.857 127.733C191.79 127.681 191.714 127.642 191.633 127.617C191.54 127.593 191.446 127.581 191.35 127.581C191.244 127.58 191.138 127.6 191.039 127.639C190.951 127.675 190.87 127.727 190.8 127.791C190.734 127.862 190.683 127.946 190.648 128.037C190.612 128.142 190.595 128.252 190.597 128.363C190.591 128.451 190.605 128.54 190.639 128.621C190.673 128.703 190.725 128.776 190.793 128.833C190.939 128.94 191.118 128.994 191.3 128.985C191.392 128.984 191.485 128.972 191.575 128.949C191.665 128.92 191.749 128.873 191.821 128.812C191.894 128.744 191.953 128.663 191.995 128.573C192.041 128.455 192.063 128.33 192.06 128.203C192.06 128.109 192.041 128.015 192.002 127.928C191.971 127.852 191.921 127.785 191.857 127.733V127.733Z" fill="#C5003E"/>
<path d="M197.411 127.457L197.455 127.219V127.037L198.461 122.301H196.369L196.289 122.758H196.492H196.702C196.753 122.764 196.802 122.782 196.847 122.808C196.883 122.836 196.911 122.874 196.926 122.917C196.935 122.982 196.935 123.047 196.926 123.112V123.163C196.926 123.163 196.926 123.221 196.926 123.257V123.366V123.482L196.847 123.829V123.938C196.847 123.981 196.847 124.025 196.847 124.076C196.844 124.124 196.844 124.172 196.847 124.22C196.851 124.264 196.851 124.307 196.847 124.351C196.727 124.282 196.597 124.231 196.463 124.199C196.306 124.163 196.146 124.146 195.985 124.148C195.715 124.142 195.446 124.191 195.195 124.293C194.955 124.384 194.732 124.517 194.536 124.684C194.335 124.849 194.157 125.042 194.008 125.256C193.859 125.473 193.73 125.703 193.624 125.944C193.523 126.177 193.446 126.42 193.392 126.668C193.341 126.906 193.314 127.149 193.313 127.392C193.314 127.6 193.338 127.806 193.385 128.008C193.43 128.188 193.508 128.357 193.617 128.508C193.718 128.652 193.852 128.772 194.008 128.855C194.188 128.944 194.387 128.986 194.587 128.978C194.754 128.979 194.919 128.958 195.08 128.913C195.237 128.865 195.384 128.789 195.514 128.689C195.66 128.577 195.789 128.445 195.898 128.298C196.028 128.117 196.142 127.926 196.238 127.725H196.289C196.289 127.791 196.289 127.841 196.289 127.892V128.022C196.289 128.059 196.289 128.102 196.289 128.145C196.289 128.189 196.289 128.232 196.289 128.29C196.287 128.395 196.309 128.5 196.354 128.594C196.394 128.678 196.453 128.75 196.528 128.804C196.608 128.865 196.699 128.909 196.796 128.935C196.909 128.964 197.026 128.979 197.144 128.978C197.287 128.979 197.43 128.964 197.571 128.935C197.698 128.906 197.821 128.865 197.94 128.812C198.049 128.762 198.156 128.706 198.259 128.645L198.512 128.457L198.324 128.117L198.085 128.24C198.007 128.274 197.924 128.294 197.839 128.298C197.799 128.297 197.76 128.289 197.724 128.273C197.687 128.257 197.655 128.233 197.629 128.203C197.593 128.163 197.566 128.116 197.55 128.065C197.534 128.014 197.529 127.96 197.535 127.906C197.535 127.856 197.535 127.783 197.535 127.704C197.535 127.624 197.397 127.559 197.411 127.457ZM196.311 126.4C196.26 126.648 196.187 126.89 196.093 127.124C196.004 127.335 195.895 127.536 195.768 127.725C195.665 127.889 195.538 128.035 195.391 128.16C195.283 128.258 195.145 128.316 195 128.327C194.933 128.329 194.868 128.311 194.812 128.276C194.749 128.241 194.697 128.192 194.66 128.131C194.612 128.046 194.58 127.952 194.565 127.856C194.537 127.718 194.525 127.577 194.529 127.436C194.531 127.259 194.546 127.082 194.573 126.907C194.602 126.706 194.646 126.508 194.703 126.313C194.754 126.114 194.825 125.92 194.913 125.734C194.996 125.556 195.095 125.386 195.21 125.227C195.315 125.091 195.442 124.973 195.586 124.879C195.722 124.791 195.881 124.743 196.043 124.742C196.152 124.743 196.26 124.765 196.361 124.807C196.46 124.844 196.548 124.906 196.615 124.988L196.311 126.4Z" fill="#C5003E"/>
<path d="M202.901 124.445C202.617 124.249 202.275 124.155 201.93 124.177C201.631 124.174 201.333 124.218 201.047 124.307C200.789 124.392 200.545 124.514 200.323 124.669C200.106 124.821 199.911 125.001 199.743 125.205C199.583 125.402 199.445 125.616 199.331 125.842C199.223 126.063 199.138 126.293 199.077 126.53C199.021 126.753 198.992 126.982 198.99 127.211C198.983 127.483 199.038 127.753 199.15 128.001C199.243 128.215 199.384 128.406 199.562 128.558C199.745 128.711 199.957 128.824 200.185 128.891C200.42 128.963 200.664 129 200.909 129C201.171 129.006 201.432 128.974 201.684 128.906C201.871 128.852 202.049 128.772 202.213 128.667C202.339 128.586 202.446 128.477 202.524 128.348C202.591 128.249 202.628 128.134 202.633 128.015C202.632 127.944 202.62 127.873 202.597 127.805C202.584 127.744 202.556 127.687 202.517 127.638C202.451 127.731 202.378 127.818 202.3 127.899C202.208 127.984 202.109 128.059 202.003 128.124C201.891 128.19 201.772 128.243 201.648 128.283C201.52 128.327 201.385 128.349 201.25 128.348C201.116 128.359 200.982 128.339 200.857 128.292C200.731 128.244 200.618 128.17 200.525 128.073C200.358 127.848 200.276 127.571 200.294 127.291V127.131C200.29 127.076 200.29 127.02 200.294 126.965H200.62C200.97 126.967 201.319 126.918 201.655 126.82C201.948 126.736 202.224 126.604 202.474 126.429C202.689 126.28 202.872 126.088 203.009 125.864C203.136 125.662 203.203 125.429 203.205 125.191C203.215 125.051 203.192 124.912 203.14 124.782C203.087 124.653 203.005 124.538 202.901 124.445V124.445ZM201.88 125.756C201.798 125.904 201.687 126.035 201.554 126.139C201.409 126.249 201.244 126.33 201.069 126.378C200.876 126.438 200.676 126.467 200.475 126.465H200.395C200.432 126.254 200.485 126.046 200.554 125.842C200.623 125.643 200.713 125.451 200.822 125.27C200.908 125.112 201.024 124.972 201.163 124.858C201.274 124.757 201.418 124.7 201.568 124.698C201.628 124.696 201.687 124.708 201.741 124.733C201.796 124.758 201.843 124.796 201.88 124.843C201.965 124.966 202.006 125.114 201.996 125.263C201.999 125.434 201.96 125.604 201.88 125.756V125.756Z" fill="#C5003E"/>
</g>
<defs>
<clipPath id="clip0">
<rect width="218" height="129" fill="white"/>
</clipPath>
</defs>
</svg>
