<svg width="145" height="113" viewBox="0 0 145 113" fill="none" xmlns="http://www.w3.org/2000/svg">
<g clip-path="url(#clip0)">
<rect width="145" height="113" fill="white"/>
<g filter="url(#filter0_d)">
<rect x="49.0475" y="54" width="47" height="26" fill="#DBDBD3"/>
<path d="M53.0475 69V54H49.0475V69H53.0475Z" fill="black"/>
<path fill-rule="evenodd" clip-rule="evenodd" d="M69.0475 11H73.0475H77.0475C78.0475 12.9412 80.0475 18.1824 80.0475 23.6176C80.0475 27.7237 78.9517 30.7663 78.0847 33.1738C77.5171 34.7499 77.0475 36.0539 77.0475 37.2059C77.0475 39.5353 79.0475 42.7059 80.0475 44H86.0475C91.5703 44 96.0475 48.4772 96.0475 54H49.0475C49.0475 48.4772 53.5246 44 59.0475 44H66.0475C67.0475 42.7059 69.0475 39.5353 69.0475 37.2059C69.0475 36.0539 68.5779 34.7499 68.0103 33.1738C67.1432 30.7663 66.0475 27.7237 66.0475 23.6176C66.0475 18.1824 68.0475 12.9412 69.0475 11ZM73.0475 18C74.1521 18 75.0475 17.1046 75.0475 16C75.0475 14.8954 74.1521 14 73.0475 14C71.9429 14 71.0475 14.8954 71.0475 16C71.0475 17.1046 71.9429 18 73.0475 18Z" fill="#565F5F"/>
<path fill-rule="evenodd" clip-rule="evenodd" d="M49.0475 68.5V80H63.3782C76.2842 82.8744 75.0778 89.7523 73.3701 99.488C73.2872 99.9607 73.2031 100.44 73.1194 100.926C73.0096 101.239 72.9499 101.575 72.9499 101.925C72.9499 103.588 74.2985 104.937 75.9621 104.937C77.6257 104.937 78.9743 103.588 78.9743 101.925V101.925C78.9743 101.679 78.9448 101.439 78.8891 101.21C77.4585 89.1408 77.2651 83.2241 82.6817 82.7317C88.122 82.2371 88.2817 86.0901 87.0668 96.4321C87.0303 96.5835 87.011 96.7416 87.0109 96.9043L87.0109 96.9045C87.011 98.0135 87.91 98.9126 89.0191 98.9126C90.1281 98.9126 91.0272 98.0135 91.0272 96.9045C91.0272 96.671 90.9874 96.4469 90.9141 96.2385C90.1402 91.2823 89.7148 80.0054 93.5448 80C93.5457 80 93.5466 80 93.5475 80L96.0475 80V65.5C96.0475 65.5 94.4475 62.1 90.0475 62.5C87.2676 62.7527 85.6373 63.7718 84.1236 64.7181C82.6425 65.6439 81.273 66.5 79.0475 66.5C76.9472 66.5 75.8 65.6287 74.5764 64.6994C73.1783 63.6375 71.6805 62.5 68.5475 62.5C65.0475 62.5 62.5475 63 57.5475 66C57.2399 66.1846 56.8978 66.4316 56.5205 66.7042C54.7943 67.951 52.33 69.7309 49.0475 68.5Z" fill="#C5003E"/>
<path d="M53.0475 77.5V68.6406C51.4475 69.1531 49.7142 68.7604 49.0475 68.5V80H60.5475C71.5475 80 74.0475 88 73.5475 86C73.0475 84 68.0475 80 65.5475 78.5C63.0475 77 60.0475 78.5 56.5475 78.5C53.7475 78.5 53.0475 77.8333 53.0475 77.5Z" fill="black"/>
<path d="M68.5475 22.5C68.5475 19.3 70.5475 13.5 71.5475 11H69.0475C68.2142 12.6667 66.0475 17.6834 66.0475 22.5C66.0475 32 68.5475 32.5 69.0475 37C69.0475 39.5 67.0475 42.8333 66.0475 44H57.0475C52.0475 45 48.5475 51 49.0475 54H53.0475C53.0475 51.5 55.0475 48.5 56.0475 47C57.0475 45.5 66.5475 46 67.5475 45.5C68.5475 45 71.0475 38.5 71.5475 36.5C72.0475 34.5 68.5475 26.5 68.5475 22.5Z" fill="black"/>
<path d="M76.0475 16C76.0475 15.5585 75.9121 15.1937 75.7161 14.9007C75.1638 14.0748 74.041 14 73.0475 14C73.5475 14 75.0475 14.5 75.0475 16C75.0475 17.5 73.7142 18 73.0475 18C74.041 18 75.1638 17.9252 75.7161 17.0993C75.9121 16.8063 76.0475 16.4415 76.0475 16Z" fill="black"/>
</g>
</g>
<defs>
<filter id="filter0_d" x="43" y="5" width="71.0475" height="117.937" filterUnits="userSpaceOnUse" color-interpolation-filters="sRGB">
<feFlood flood-opacity="0" result="BackgroundImageFix"/>
<feColorMatrix in="SourceAlpha" type="matrix" values="0 0 0 0 0 0 0 0 0 0 0 0 0 0 0 0 0 0 127 0"/>
<feOffset dx="6" dy="6"/>
<feGaussianBlur stdDeviation="6"/>
<feColorMatrix type="matrix" values="0 0 0 0 0 0 0 0 0 0 0 0 0 0 0 0 0 0 0.25 0"/>
<feBlend mode="normal" in2="BackgroundImageFix" result="effect1_dropShadow"/>
<feBlend mode="normal" in="SourceGraphic" in2="effect1_dropShadow" result="shape"/>
</filter>
<clipPath id="clip0">
<rect width="145" height="113" fill="white"/>
</clipPath>
</defs>
</svg>
