<svg width="145" height="113" viewBox="0 0 145 113" fill="none" xmlns="http://www.w3.org/2000/svg">
<g clip-path="url(#clip0)">
<rect width="145" height="113" fill="white"/>
<path fill-rule="evenodd" clip-rule="evenodd" d="M112.248 32.9444C112.638 32.5539 113.275 32.5551 113.655 32.9552C128.326 48.3667 128.326 72.6164 113.655 88.028C113.275 88.428 112.638 88.4293 112.248 88.0388L104.851 80.6415C104.199 79.9901 102.969 80.5006 102.755 81.3967C102.387 82.9394 101.601 84.4028 100.397 85.6065C96.9297 89.0741 91.3075 89.0741 87.8399 85.6065C84.3722 82.1388 84.3722 76.5167 87.8399 73.049C89.0436 71.8453 90.507 71.0594 92.0497 70.6914C92.9458 70.4776 93.4563 69.2473 92.8049 68.5959L85.4077 61.1987C85.0172 60.8082 85.0172 60.175 85.4077 59.7845L92.8049 52.3872C93.4563 51.7358 94.6866 52.2463 94.9004 53.1424C95.2684 54.6851 96.0543 56.1485 97.258 57.3522C100.726 60.8199 106.348 60.8199 109.816 57.3522C113.283 53.8846 113.283 48.2624 109.816 44.7947C108.612 43.591 107.148 42.8051 105.606 42.4371C104.71 42.2233 104.199 40.993 104.851 40.3416L112.248 32.9444Z" fill="black"/>
<path fill-rule="evenodd" clip-rule="evenodd" d="M112.248 88.0387C112.638 88.4292 112.637 89.0655 112.237 89.4463C96.8254 104.117 72.5757 104.117 57.1641 89.4462C56.7641 89.0655 56.7628 88.4292 57.1534 88.0387L64.5506 80.6415C65.202 79.9901 64.6916 78.7598 63.7955 78.546C62.2527 78.178 60.7894 77.3921 59.5856 76.1884C56.118 72.7207 56.118 67.0985 59.5856 63.6309C63.0533 60.1632 68.6755 60.1632 72.1431 63.6309C73.3468 64.8346 74.1327 66.298 74.5007 67.8407C74.7145 68.7368 75.9448 69.2473 76.5962 68.5958L83.9935 61.1986C84.384 60.8081 85.0171 60.8081 85.4077 61.1986L92.8049 68.5959C93.4563 69.2473 92.9459 70.4776 92.0498 70.6913C90.507 71.0594 89.0437 71.8453 87.84 73.049C84.3723 76.5166 84.3723 82.1388 87.84 85.6064C91.3076 89.0741 96.9298 89.0741 100.397 85.6064C101.601 84.4027 102.387 82.9394 102.755 81.3967C102.969 80.5006 104.199 79.9901 104.851 80.6415L112.248 88.0387Z" fill="black"/>
<path fill-rule="evenodd" clip-rule="evenodd" d="M57.1534 32.9444C56.7628 32.5539 56.7641 31.9176 57.1641 31.5368C72.5757 16.8663 96.8254 16.8663 112.237 31.5368C112.637 31.9176 112.638 32.5539 112.248 32.9444L104.851 40.3416C104.199 40.993 104.71 42.2234 105.606 42.4371C107.148 42.8051 108.612 43.591 109.815 44.7948C113.283 48.2624 113.283 53.8846 109.815 57.3522C106.348 60.8199 100.726 60.8199 97.258 57.3522C96.0543 56.1485 95.2684 54.6851 94.9004 53.1424C94.6866 52.2463 93.4563 51.7358 92.8049 52.3873L85.4077 59.7845C85.0171 60.175 84.384 60.175 83.9935 59.7845L76.5962 52.3872C75.9448 51.7358 76.4553 50.5055 77.3514 50.2917C78.8941 49.9237 80.3575 49.1378 81.5612 47.9341C85.0289 44.4664 85.0289 38.8443 81.5612 35.3766C78.0936 31.909 72.4714 31.909 69.0038 35.3766C67.8 36.5804 67.0141 38.0437 66.6461 39.5865C66.4323 40.4826 65.202 40.993 64.5506 40.3416L57.1534 32.9444Z" fill="black"/>
<path fill-rule="evenodd" clip-rule="evenodd" d="M26.9444 87.7808C26.5539 88.1713 25.9176 88.17 25.5368 87.77C10.8663 72.3584 10.8663 48.1087 25.5368 32.6972C25.9176 32.2971 26.5539 32.2959 26.9444 32.6864L34.3416 40.0836C34.993 40.735 36.2234 40.2246 36.4371 39.3285C36.8051 37.7858 37.591 36.3224 38.7948 35.1187C42.2624 31.651 47.8846 31.651 51.3522 35.1187C54.8199 38.5863 54.8199 44.2085 51.3522 47.6761C50.1485 48.8799 48.6851 49.6657 47.1424 50.0338C46.2463 50.2475 45.7358 51.4779 46.3873 52.1293L53.7845 59.5265C54.175 59.917 54.175 60.5502 53.7845 60.9407L46.3872 68.3379C45.7358 68.9893 44.5055 68.4789 44.2917 67.5828C43.9237 66.04 43.1378 64.5767 41.9341 63.373C38.4664 59.9053 32.8443 59.9053 29.3766 63.373C25.909 66.8406 25.909 72.4628 29.3766 75.9304C30.5804 77.1342 32.0437 77.92 33.5865 78.2881C34.4826 78.5018 34.993 79.7321 34.3416 80.3836L26.9444 87.7808Z" fill="black"/>
<path fill-rule="evenodd" clip-rule="evenodd" d="M114.248 28.9444C114.638 28.5539 115.275 28.5551 115.655 28.9552C130.326 44.3667 130.326 68.6164 115.655 84.028C115.275 84.428 114.638 84.4293 114.248 84.0388L106.851 76.6415C106.199 75.9901 104.969 76.5006 104.755 77.3967C104.387 78.9394 103.601 80.4028 102.397 81.6065C98.9297 85.0741 93.3075 85.0741 89.8399 81.6065C86.3722 78.1388 86.3722 72.5167 89.8399 69.049C91.0436 67.8453 92.507 67.0594 94.0497 66.6914C94.9458 66.4776 95.4563 65.2473 94.8049 64.5959L87.4077 57.1987C87.0172 56.8082 87.0172 56.175 87.4077 55.7845L94.8049 48.3872C95.4563 47.7358 96.6866 48.2463 96.9004 49.1424C97.2684 50.6851 98.0543 52.1485 99.258 53.3522C102.726 56.8199 108.348 56.8199 111.816 53.3522C115.283 49.8846 115.283 44.2624 111.816 40.7947C110.612 39.591 109.148 38.8051 107.606 38.4371C106.71 38.2233 106.199 36.993 106.851 36.3416L114.248 28.9444Z" fill="#565F5F"/>
<path fill-rule="evenodd" clip-rule="evenodd" d="M114.248 84.0387C114.638 84.4292 114.637 85.0655 114.237 85.4463C98.8254 100.117 74.5757 100.117 59.1641 85.4462C58.7641 85.0655 58.7628 84.4292 59.1534 84.0387L66.5506 76.6415C67.202 75.9901 66.6916 74.7598 65.7955 74.546C64.2527 74.178 62.7894 73.3921 61.5856 72.1884C58.118 68.7207 58.118 63.0985 61.5856 59.6309C65.0533 56.1632 70.6755 56.1632 74.1431 59.6309C75.3468 60.8346 76.1327 62.298 76.5007 63.8407C76.7145 64.7368 77.9448 65.2473 78.5962 64.5958L85.9935 57.1986C86.384 56.8081 87.0171 56.8081 87.4077 57.1986L94.8049 64.5959C95.4563 65.2473 94.9459 66.4776 94.0498 66.6913C92.507 67.0594 91.0437 67.8453 89.84 69.049C86.3723 72.5166 86.3723 78.1388 89.84 81.6064C93.3076 85.0741 98.9298 85.0741 102.397 81.6064C103.601 80.4027 104.387 78.9394 104.755 77.3967C104.969 76.5006 106.199 75.9901 106.851 76.6415L114.248 84.0387Z" fill="#BBBDB7"/>
<path fill-rule="evenodd" clip-rule="evenodd" d="M59.1534 28.9444C58.7628 28.5539 58.7641 27.9176 59.1641 27.5368C74.5757 12.8663 98.8254 12.8663 114.237 27.5368C114.637 27.9176 114.638 28.5539 114.248 28.9444L106.851 36.3416C106.199 36.993 106.71 38.2234 107.606 38.4371C109.148 38.8051 110.612 39.591 111.815 40.7948C115.283 44.2624 115.283 49.8846 111.815 53.3522C108.348 56.8199 102.726 56.8199 99.258 53.3522C98.0543 52.1485 97.2684 50.6851 96.9004 49.1424C96.6866 48.2463 95.4563 47.7358 94.8049 48.3873L87.4077 55.7845C87.0171 56.175 86.384 56.175 85.9935 55.7845L78.5962 48.3872C77.9448 47.7358 78.4553 46.5055 79.3514 46.2917C80.8941 45.9237 82.3575 45.1378 83.5612 43.9341C87.0289 40.4664 87.0289 34.8443 83.5612 31.3766C80.0936 27.909 74.4714 27.909 71.0038 31.3766C69.8 32.5804 69.0141 34.0437 68.6461 35.5865C68.4323 36.4826 67.202 36.993 66.5506 36.3416L59.1534 28.9444Z" fill="#DBDBD3"/>
<path fill-rule="evenodd" clip-rule="evenodd" d="M28.9444 83.7808C28.5539 84.1713 27.9176 84.17 27.5368 83.77C12.8663 68.3584 12.8663 44.1087 27.5368 28.6972C27.9176 28.2971 28.5539 28.2959 28.9444 28.6864L36.3416 36.0836C36.993 36.735 38.2234 36.2246 38.4371 35.3285C38.8051 33.7858 39.591 32.3224 40.7948 31.1187C44.2624 27.651 49.8846 27.651 53.3522 31.1187C56.8199 34.5863 56.8199 40.2085 53.3522 43.6761C52.1485 44.8799 50.6851 45.6657 49.1424 46.0338C48.2463 46.2475 47.7358 47.4779 48.3873 48.1293L55.7845 55.5265C56.175 55.917 56.175 56.5502 55.7845 56.9407L48.3872 64.3379C47.7358 64.9893 46.5055 64.4789 46.2917 63.5828C45.9237 62.04 45.1378 60.5767 43.9341 59.373C40.4664 55.9053 34.8443 55.9053 31.3766 59.373C27.909 62.8406 27.909 68.4628 31.3766 71.9304C32.5804 73.1342 34.0437 73.92 35.5865 74.2881C36.4826 74.5018 36.993 75.7321 36.3416 76.3836L28.9444 83.7808Z" fill="#C5003E"/>
</g>
<defs>
<clipPath id="clip0">
<rect width="145" height="113" fill="white"/>
</clipPath>
</defs>
</svg>
