<svg width="145" height="113" viewBox="0 0 145 113" fill="none" xmlns="http://www.w3.org/2000/svg">
<g clip-path="url(#clip0)">
<rect width="145" height="113" fill="white"/>
<g filter="url(#filter0_d)">
<path d="M67.8245 101.838L67.8244 101.897C65.8825 99.9988 64.0248 98.2107 62.2679 96.5196C52.7165 87.3259 46.1411 80.9968 45.1814 75.4784C44.0452 68.9449 48.3062 59.6474 56.26 59.0025C63.4957 58.4158 67.3891 66.5075 68 68.0001C68.6108 66.5076 72.1363 58.4158 79.372 59.0025C87.3259 59.6474 91.5869 68.9448 90.4506 75.4784C89.4958 80.9685 82.9948 87.2196 73.5266 96.3237C71.7272 98.0539 69.8206 99.8872 67.8245 101.838Z" fill="#888A8B"/>
<path d="M67.3861 53.3839C66.404 53.2374 57.7508 45.096 58.8139 38.7964C55.0854 45.7505 55.8609 52.0937 57.1088 55.8206C51.4678 49.7406 45.8167 40.733 50.5 31C54.1088 23.5 60.9949 20.8505 69.5 20C74.5 19.5 79 14 80 9.5C82.291 14.9404 80.278 20.2241 77.4242 24.4006C81.7794 21.5958 86.0875 21.048 88.5 21C94 20.8907 100 25.6923 105 23C111.328 19.5928 109.656 8.39036 109.094 7.53981C109.087 7.53312 109.081 7.52653 109.075 7.52004L109.05 7.49372C109.064 7.50117 109.078 7.51665 109.094 7.53981C111.246 9.8303 124.767 24.3097 109.05 38.7964C93.2238 53.384 75.9829 55.1632 75.9829 55.1632C81.4757 50.9801 90.8283 44.4163 93.2238 38.3608C86.2519 38.3962 81.1409 39.2611 77.8908 40.9556C72.9168 43.5952 69.4152 47.738 67.3861 53.3839Z" fill="#C5003E"/>
</g>
<path d="M67.9068 68.4041C67.9068 68.4041 64.2139 58.3849 56.2601 59.0299C48.3062 59.6748 44.0452 68.9722 45.1814 75.5057C46.3177 82.0393 55.3255 89.709 67.8244 101.924L67.9068 68.4041Z" fill="black"/>
<path d="M68 68.6993C68 68.6993 65.0982 60.4964 58.8481 61.0244C52.598 61.5525 49.2497 69.1645 50.1426 74.5136C51.0354 79.8628 58.1784 91.9994 68 102V68.6993Z" fill="#888A8B"/>
</g>
<defs>
<filter id="filter0_d" x="39" y="1.49371" width="95.5516" height="118.403" filterUnits="userSpaceOnUse" color-interpolation-filters="sRGB">
<feFlood flood-opacity="0" result="BackgroundImageFix"/>
<feColorMatrix in="SourceAlpha" type="matrix" values="0 0 0 0 0 0 0 0 0 0 0 0 0 0 0 0 0 0 127 0"/>
<feOffset dx="6" dy="6"/>
<feGaussianBlur stdDeviation="6"/>
<feColorMatrix type="matrix" values="0 0 0 0 0 0 0 0 0 0 0 0 0 0 0 0 0 0 0.25 0"/>
<feBlend mode="normal" in2="BackgroundImageFix" result="effect1_dropShadow"/>
<feBlend mode="normal" in="SourceGraphic" in2="effect1_dropShadow" result="shape"/>
</filter>
<clipPath id="clip0">
<rect width="145" height="113" fill="white"/>
</clipPath>
</defs>
</svg>
